<?xml version="1.0" encoding="utf-8" standalone="no"?>
<!DOCTYPE svg PUBLIC "-//W3C//DTD SVG 1.1//EN"
  "http://www.w3.org/Graphics/SVG/1.1/DTD/svg11.dtd">
<svg xmlns:xlink="http://www.w3.org/1999/xlink" width="460.8pt" height="345.6pt" viewBox="0 0 460.8 345.6" xmlns="http://www.w3.org/2000/svg" version="1.1">
 <metadata>
  <rdf:RDF xmlns:dc="http://purl.org/dc/elements/1.1/" xmlns:cc="http://creativecommons.org/ns#" xmlns:rdf="http://www.w3.org/1999/02/22-rdf-syntax-ns#">
   <cc:Work>
    <dc:type rdf:resource="http://purl.org/dc/dcmitype/StillImage"/>
    <dc:date>2024-05-24T14:21:30.394203</dc:date>
    <dc:format>image/svg+xml</dc:format>
    <dc:creator>
     <cc:Agent>
      <dc:title>Matplotlib v3.7.1, https://matplotlib.org/</dc:title>
     </cc:Agent>
    </dc:creator>
   </cc:Work>
  </rdf:RDF>
 </metadata>
 <defs>
  <style type="text/css">*{stroke-linejoin: round; stroke-linecap: butt}</style>
 </defs>
 <g id="figure_1">
  <g id="patch_1">
   <path d="M 0 345.6 
L 460.8 345.6 
L 460.8 0 
L 0 0 
z
" style="fill: #ffffff"/>
  </g>
  <g id="axes_1">
   <g id="patch_2">
    <path d="M 57.6 307.584 
L 414.72 307.584 
L 414.72 41.472 
L 57.6 41.472 
z
" style="fill: #e5e5e5"/>
   </g>
   <g id="matplotlib.axis_1">
    <g id="xtick_1">
     <g id="line2d_1">
      <path d="M 89.541818 307.584 
L 89.541818 41.472 
" clip-path="url(#p4f5fc98e5c)" style="fill: none; stroke: #ffffff; stroke-width: 0.8; stroke-linecap: square"/>
     </g>
     <g id="line2d_2">
      <defs>
       <path id="mb0f0eb81ed" d="M 0 0 
L 0 3.5 
" style="stroke: #555555; stroke-width: 0.8"/>
      </defs>
      <g>
       <use xlink:href="#mb0f0eb81ed" x="89.541818" y="307.584" style="fill: #555555; stroke: #555555; stroke-width: 0.8"/>
      </g>
     </g>
     <g id="text_1">
      <!-- D1 -->
      <g style="fill: #555555" transform="translate(82.510568 322.182437) scale(0.1 -0.1)">
       <defs>
        <path id="DejaVuSans-44" d="M 1259 4147 
L 1259 519 
L 2022 519 
Q 2988 519 3436 956 
Q 3884 1394 3884 2338 
Q 3884 3275 3436 3711 
Q 2988 4147 2022 4147 
L 1259 4147 
z
M 628 4666 
L 1925 4666 
Q 3281 4666 3915 4102 
Q 4550 3538 4550 2338 
Q 4550 1131 3912 565 
Q 3275 0 1925 0 
L 628 0 
L 628 4666 
z
" transform="scale(0.015625)"/>
        <path id="DejaVuSans-31" d="M 794 531 
L 1825 531 
L 1825 4091 
L 703 3866 
L 703 4441 
L 1819 4666 
L 2450 4666 
L 2450 531 
L 3481 531 
L 3481 0 
L 794 0 
L 794 531 
z
" transform="scale(0.015625)"/>
       </defs>
       <use xlink:href="#DejaVuSans-44"/>
       <use xlink:href="#DejaVuSans-31" x="77.001953"/>
      </g>
     </g>
    </g>
    <g id="xtick_2">
     <g id="line2d_3">
      <path d="M 131.432727 307.584 
L 131.432727 41.472 
" clip-path="url(#p4f5fc98e5c)" style="fill: none; stroke: #ffffff; stroke-width: 0.8; stroke-linecap: square"/>
     </g>
     <g id="line2d_4">
      <g>
       <use xlink:href="#mb0f0eb81ed" x="131.432727" y="307.584" style="fill: #555555; stroke: #555555; stroke-width: 0.8"/>
      </g>
     </g>
     <g id="text_2">
      <!-- D2 -->
      <g style="fill: #555555" transform="translate(124.401477 322.182437) scale(0.1 -0.1)">
       <defs>
        <path id="DejaVuSans-32" d="M 1228 531 
L 3431 531 
L 3431 0 
L 469 0 
L 469 531 
Q 828 903 1448 1529 
Q 2069 2156 2228 2338 
Q 2531 2678 2651 2914 
Q 2772 3150 2772 3378 
Q 2772 3750 2511 3984 
Q 2250 4219 1831 4219 
Q 1534 4219 1204 4116 
Q 875 4013 500 3803 
L 500 4441 
Q 881 4594 1212 4672 
Q 1544 4750 1819 4750 
Q 2544 4750 2975 4387 
Q 3406 4025 3406 3419 
Q 3406 3131 3298 2873 
Q 3191 2616 2906 2266 
Q 2828 2175 2409 1742 
Q 1991 1309 1228 531 
z
" transform="scale(0.015625)"/>
       </defs>
       <use xlink:href="#DejaVuSans-44"/>
       <use xlink:href="#DejaVuSans-32" x="77.001953"/>
      </g>
     </g>
    </g>
    <g id="xtick_3">
     <g id="line2d_5">
      <path d="M 173.323636 307.584 
L 173.323636 41.472 
" clip-path="url(#p4f5fc98e5c)" style="fill: none; stroke: #ffffff; stroke-width: 0.8; stroke-linecap: square"/>
     </g>
     <g id="line2d_6">
      <g>
       <use xlink:href="#mb0f0eb81ed" x="173.323636" y="307.584" style="fill: #555555; stroke: #555555; stroke-width: 0.8"/>
      </g>
     </g>
     <g id="text_3">
      <!-- D3 -->
      <g style="fill: #555555" transform="translate(166.292386 322.182437) scale(0.1 -0.1)">
       <defs>
        <path id="DejaVuSans-33" d="M 2597 2516 
Q 3050 2419 3304 2112 
Q 3559 1806 3559 1356 
Q 3559 666 3084 287 
Q 2609 -91 1734 -91 
Q 1441 -91 1130 -33 
Q 819 25 488 141 
L 488 750 
Q 750 597 1062 519 
Q 1375 441 1716 441 
Q 2309 441 2620 675 
Q 2931 909 2931 1356 
Q 2931 1769 2642 2001 
Q 2353 2234 1838 2234 
L 1294 2234 
L 1294 2753 
L 1863 2753 
Q 2328 2753 2575 2939 
Q 2822 3125 2822 3475 
Q 2822 3834 2567 4026 
Q 2313 4219 1838 4219 
Q 1578 4219 1281 4162 
Q 984 4106 628 3988 
L 628 4550 
Q 988 4650 1302 4700 
Q 1616 4750 1894 4750 
Q 2613 4750 3031 4423 
Q 3450 4097 3450 3541 
Q 3450 3153 3228 2886 
Q 3006 2619 2597 2516 
z
" transform="scale(0.015625)"/>
       </defs>
       <use xlink:href="#DejaVuSans-44"/>
       <use xlink:href="#DejaVuSans-33" x="77.001953"/>
      </g>
     </g>
    </g>
    <g id="xtick_4">
     <g id="line2d_7">
      <path d="M 215.214545 307.584 
L 215.214545 41.472 
" clip-path="url(#p4f5fc98e5c)" style="fill: none; stroke: #ffffff; stroke-width: 0.8; stroke-linecap: square"/>
     </g>
     <g id="line2d_8">
      <g>
       <use xlink:href="#mb0f0eb81ed" x="215.214545" y="307.584" style="fill: #555555; stroke: #555555; stroke-width: 0.8"/>
      </g>
     </g>
     <g id="text_4">
      <!-- D4 -->
      <g style="fill: #555555" transform="translate(208.183295 322.182437) scale(0.1 -0.1)">
       <defs>
        <path id="DejaVuSans-34" d="M 2419 4116 
L 825 1625 
L 2419 1625 
L 2419 4116 
z
M 2253 4666 
L 3047 4666 
L 3047 1625 
L 3713 1625 
L 3713 1100 
L 3047 1100 
L 3047 0 
L 2419 0 
L 2419 1100 
L 313 1100 
L 313 1709 
L 2253 4666 
z
" transform="scale(0.015625)"/>
       </defs>
       <use xlink:href="#DejaVuSans-44"/>
       <use xlink:href="#DejaVuSans-34" x="77.001953"/>
      </g>
     </g>
    </g>
    <g id="xtick_5">
     <g id="line2d_9">
      <path d="M 257.105455 307.584 
L 257.105455 41.472 
" clip-path="url(#p4f5fc98e5c)" style="fill: none; stroke: #ffffff; stroke-width: 0.8; stroke-linecap: square"/>
     </g>
     <g id="line2d_10">
      <g>
       <use xlink:href="#mb0f0eb81ed" x="257.105455" y="307.584" style="fill: #555555; stroke: #555555; stroke-width: 0.8"/>
      </g>
     </g>
     <g id="text_5">
      <!-- D5 -->
      <g style="fill: #555555" transform="translate(250.074205 322.182437) scale(0.1 -0.1)">
       <defs>
        <path id="DejaVuSans-35" d="M 691 4666 
L 3169 4666 
L 3169 4134 
L 1269 4134 
L 1269 2991 
Q 1406 3038 1543 3061 
Q 1681 3084 1819 3084 
Q 2600 3084 3056 2656 
Q 3513 2228 3513 1497 
Q 3513 744 3044 326 
Q 2575 -91 1722 -91 
Q 1428 -91 1123 -41 
Q 819 9 494 109 
L 494 744 
Q 775 591 1075 516 
Q 1375 441 1709 441 
Q 2250 441 2565 725 
Q 2881 1009 2881 1497 
Q 2881 1984 2565 2268 
Q 2250 2553 1709 2553 
Q 1456 2553 1204 2497 
Q 953 2441 691 2322 
L 691 4666 
z
" transform="scale(0.015625)"/>
       </defs>
       <use xlink:href="#DejaVuSans-44"/>
       <use xlink:href="#DejaVuSans-35" x="77.001953"/>
      </g>
     </g>
    </g>
    <g id="xtick_6">
     <g id="line2d_11">
      <path d="M 298.996364 307.584 
L 298.996364 41.472 
" clip-path="url(#p4f5fc98e5c)" style="fill: none; stroke: #ffffff; stroke-width: 0.8; stroke-linecap: square"/>
     </g>
     <g id="line2d_12">
      <g>
       <use xlink:href="#mb0f0eb81ed" x="298.996364" y="307.584" style="fill: #555555; stroke: #555555; stroke-width: 0.8"/>
      </g>
     </g>
     <g id="text_6">
      <!-- D6 -->
      <g style="fill: #555555" transform="translate(291.965114 322.182437) scale(0.1 -0.1)">
       <defs>
        <path id="DejaVuSans-36" d="M 2113 2584 
Q 1688 2584 1439 2293 
Q 1191 2003 1191 1497 
Q 1191 994 1439 701 
Q 1688 409 2113 409 
Q 2538 409 2786 701 
Q 3034 994 3034 1497 
Q 3034 2003 2786 2293 
Q 2538 2584 2113 2584 
z
M 3366 4563 
L 3366 3988 
Q 3128 4100 2886 4159 
Q 2644 4219 2406 4219 
Q 1781 4219 1451 3797 
Q 1122 3375 1075 2522 
Q 1259 2794 1537 2939 
Q 1816 3084 2150 3084 
Q 2853 3084 3261 2657 
Q 3669 2231 3669 1497 
Q 3669 778 3244 343 
Q 2819 -91 2113 -91 
Q 1303 -91 875 529 
Q 447 1150 447 2328 
Q 447 3434 972 4092 
Q 1497 4750 2381 4750 
Q 2619 4750 2861 4703 
Q 3103 4656 3366 4563 
z
" transform="scale(0.015625)"/>
       </defs>
       <use xlink:href="#DejaVuSans-44"/>
       <use xlink:href="#DejaVuSans-36" x="77.001953"/>
      </g>
     </g>
    </g>
    <g id="xtick_7">
     <g id="line2d_13">
      <path d="M 340.887273 307.584 
L 340.887273 41.472 
" clip-path="url(#p4f5fc98e5c)" style="fill: none; stroke: #ffffff; stroke-width: 0.8; stroke-linecap: square"/>
     </g>
     <g id="line2d_14">
      <g>
       <use xlink:href="#mb0f0eb81ed" x="340.887273" y="307.584" style="fill: #555555; stroke: #555555; stroke-width: 0.8"/>
      </g>
     </g>
     <g id="text_7">
      <!-- D7 -->
      <g style="fill: #555555" transform="translate(333.856023 322.182437) scale(0.1 -0.1)">
       <defs>
        <path id="DejaVuSans-37" d="M 525 4666 
L 3525 4666 
L 3525 4397 
L 1831 0 
L 1172 0 
L 2766 4134 
L 525 4134 
L 525 4666 
z
" transform="scale(0.015625)"/>
       </defs>
       <use xlink:href="#DejaVuSans-44"/>
       <use xlink:href="#DejaVuSans-37" x="77.001953"/>
      </g>
     </g>
    </g>
    <g id="xtick_8">
     <g id="line2d_15">
      <path d="M 382.778182 307.584 
L 382.778182 41.472 
" clip-path="url(#p4f5fc98e5c)" style="fill: none; stroke: #ffffff; stroke-width: 0.8; stroke-linecap: square"/>
     </g>
     <g id="line2d_16">
      <g>
       <use xlink:href="#mb0f0eb81ed" x="382.778182" y="307.584" style="fill: #555555; stroke: #555555; stroke-width: 0.8"/>
      </g>
     </g>
     <g id="text_8">
      <!-- D8 -->
      <g style="fill: #555555" transform="translate(375.746932 322.182437) scale(0.1 -0.1)">
       <defs>
        <path id="DejaVuSans-38" d="M 2034 2216 
Q 1584 2216 1326 1975 
Q 1069 1734 1069 1313 
Q 1069 891 1326 650 
Q 1584 409 2034 409 
Q 2484 409 2743 651 
Q 3003 894 3003 1313 
Q 3003 1734 2745 1975 
Q 2488 2216 2034 2216 
z
M 1403 2484 
Q 997 2584 770 2862 
Q 544 3141 544 3541 
Q 544 4100 942 4425 
Q 1341 4750 2034 4750 
Q 2731 4750 3128 4425 
Q 3525 4100 3525 3541 
Q 3525 3141 3298 2862 
Q 3072 2584 2669 2484 
Q 3125 2378 3379 2068 
Q 3634 1759 3634 1313 
Q 3634 634 3220 271 
Q 2806 -91 2034 -91 
Q 1263 -91 848 271 
Q 434 634 434 1313 
Q 434 1759 690 2068 
Q 947 2378 1403 2484 
z
M 1172 3481 
Q 1172 3119 1398 2916 
Q 1625 2713 2034 2713 
Q 2441 2713 2670 2916 
Q 2900 3119 2900 3481 
Q 2900 3844 2670 4047 
Q 2441 4250 2034 4250 
Q 1625 4250 1398 4047 
Q 1172 3844 1172 3481 
z
" transform="scale(0.015625)"/>
       </defs>
       <use xlink:href="#DejaVuSans-44"/>
       <use xlink:href="#DejaVuSans-38" x="77.001953"/>
      </g>
     </g>
    </g>
    <g id="text_9">
     <!-- Query Template -->
     <g style="fill: #555555" transform="translate(188.64 337.38025) scale(0.12 -0.12)">
      <defs>
       <path id="DejaVuSans-51" d="M 2522 4238 
Q 1834 4238 1429 3725 
Q 1025 3213 1025 2328 
Q 1025 1447 1429 934 
Q 1834 422 2522 422 
Q 3209 422 3611 934 
Q 4013 1447 4013 2328 
Q 4013 3213 3611 3725 
Q 3209 4238 2522 4238 
z
M 3406 84 
L 4238 -825 
L 3475 -825 
L 2784 -78 
Q 2681 -84 2626 -87 
Q 2572 -91 2522 -91 
Q 1538 -91 948 567 
Q 359 1225 359 2328 
Q 359 3434 948 4092 
Q 1538 4750 2522 4750 
Q 3503 4750 4090 4092 
Q 4678 3434 4678 2328 
Q 4678 1516 4351 937 
Q 4025 359 3406 84 
z
" transform="scale(0.015625)"/>
       <path id="DejaVuSans-75" d="M 544 1381 
L 544 3500 
L 1119 3500 
L 1119 1403 
Q 1119 906 1312 657 
Q 1506 409 1894 409 
Q 2359 409 2629 706 
Q 2900 1003 2900 1516 
L 2900 3500 
L 3475 3500 
L 3475 0 
L 2900 0 
L 2900 538 
Q 2691 219 2414 64 
Q 2138 -91 1772 -91 
Q 1169 -91 856 284 
Q 544 659 544 1381 
z
M 1991 3584 
L 1991 3584 
z
" transform="scale(0.015625)"/>
       <path id="DejaVuSans-65" d="M 3597 1894 
L 3597 1613 
L 953 1613 
Q 991 1019 1311 708 
Q 1631 397 2203 397 
Q 2534 397 2845 478 
Q 3156 559 3463 722 
L 3463 178 
Q 3153 47 2828 -22 
Q 2503 -91 2169 -91 
Q 1331 -91 842 396 
Q 353 884 353 1716 
Q 353 2575 817 3079 
Q 1281 3584 2069 3584 
Q 2775 3584 3186 3129 
Q 3597 2675 3597 1894 
z
M 3022 2063 
Q 3016 2534 2758 2815 
Q 2500 3097 2075 3097 
Q 1594 3097 1305 2825 
Q 1016 2553 972 2059 
L 3022 2063 
z
" transform="scale(0.015625)"/>
       <path id="DejaVuSans-72" d="M 2631 2963 
Q 2534 3019 2420 3045 
Q 2306 3072 2169 3072 
Q 1681 3072 1420 2755 
Q 1159 2438 1159 1844 
L 1159 0 
L 581 0 
L 581 3500 
L 1159 3500 
L 1159 2956 
Q 1341 3275 1631 3429 
Q 1922 3584 2338 3584 
Q 2397 3584 2469 3576 
Q 2541 3569 2628 3553 
L 2631 2963 
z
" transform="scale(0.015625)"/>
       <path id="DejaVuSans-79" d="M 2059 -325 
Q 1816 -950 1584 -1140 
Q 1353 -1331 966 -1331 
L 506 -1331 
L 506 -850 
L 844 -850 
Q 1081 -850 1212 -737 
Q 1344 -625 1503 -206 
L 1606 56 
L 191 3500 
L 800 3500 
L 1894 763 
L 2988 3500 
L 3597 3500 
L 2059 -325 
z
" transform="scale(0.015625)"/>
       <path id="DejaVuSans-20" transform="scale(0.015625)"/>
       <path id="DejaVuSans-54" d="M -19 4666 
L 3928 4666 
L 3928 4134 
L 2272 4134 
L 2272 0 
L 1638 0 
L 1638 4134 
L -19 4134 
L -19 4666 
z
" transform="scale(0.015625)"/>
       <path id="DejaVuSans-6d" d="M 3328 2828 
Q 3544 3216 3844 3400 
Q 4144 3584 4550 3584 
Q 5097 3584 5394 3201 
Q 5691 2819 5691 2113 
L 5691 0 
L 5113 0 
L 5113 2094 
Q 5113 2597 4934 2840 
Q 4756 3084 4391 3084 
Q 3944 3084 3684 2787 
Q 3425 2491 3425 1978 
L 3425 0 
L 2847 0 
L 2847 2094 
Q 2847 2600 2669 2842 
Q 2491 3084 2119 3084 
Q 1678 3084 1418 2786 
Q 1159 2488 1159 1978 
L 1159 0 
L 581 0 
L 581 3500 
L 1159 3500 
L 1159 2956 
Q 1356 3278 1631 3431 
Q 1906 3584 2284 3584 
Q 2666 3584 2933 3390 
Q 3200 3197 3328 2828 
z
" transform="scale(0.015625)"/>
       <path id="DejaVuSans-70" d="M 1159 525 
L 1159 -1331 
L 581 -1331 
L 581 3500 
L 1159 3500 
L 1159 2969 
Q 1341 3281 1617 3432 
Q 1894 3584 2278 3584 
Q 2916 3584 3314 3078 
Q 3713 2572 3713 1747 
Q 3713 922 3314 415 
Q 2916 -91 2278 -91 
Q 1894 -91 1617 61 
Q 1341 213 1159 525 
z
M 3116 1747 
Q 3116 2381 2855 2742 
Q 2594 3103 2138 3103 
Q 1681 3103 1420 2742 
Q 1159 2381 1159 1747 
Q 1159 1113 1420 752 
Q 1681 391 2138 391 
Q 2594 391 2855 752 
Q 3116 1113 3116 1747 
z
" transform="scale(0.015625)"/>
       <path id="DejaVuSans-6c" d="M 603 4863 
L 1178 4863 
L 1178 0 
L 603 0 
L 603 4863 
z
" transform="scale(0.015625)"/>
       <path id="DejaVuSans-61" d="M 2194 1759 
Q 1497 1759 1228 1600 
Q 959 1441 959 1056 
Q 959 750 1161 570 
Q 1363 391 1709 391 
Q 2188 391 2477 730 
Q 2766 1069 2766 1631 
L 2766 1759 
L 2194 1759 
z
M 3341 1997 
L 3341 0 
L 2766 0 
L 2766 531 
Q 2569 213 2275 61 
Q 1981 -91 1556 -91 
Q 1019 -91 701 211 
Q 384 513 384 1019 
Q 384 1609 779 1909 
Q 1175 2209 1959 2209 
L 2766 2209 
L 2766 2266 
Q 2766 2663 2505 2880 
Q 2244 3097 1772 3097 
Q 1472 3097 1187 3025 
Q 903 2953 641 2809 
L 641 3341 
Q 956 3463 1253 3523 
Q 1550 3584 1831 3584 
Q 2591 3584 2966 3190 
Q 3341 2797 3341 1997 
z
" transform="scale(0.015625)"/>
       <path id="DejaVuSans-74" d="M 1172 4494 
L 1172 3500 
L 2356 3500 
L 2356 3053 
L 1172 3053 
L 1172 1153 
Q 1172 725 1289 603 
Q 1406 481 1766 481 
L 2356 481 
L 2356 0 
L 1766 0 
Q 1100 0 847 248 
Q 594 497 594 1153 
L 594 3053 
L 172 3053 
L 172 3500 
L 594 3500 
L 594 4494 
L 1172 4494 
z
" transform="scale(0.015625)"/>
      </defs>
      <use xlink:href="#DejaVuSans-51"/>
      <use xlink:href="#DejaVuSans-75" x="78.710938"/>
      <use xlink:href="#DejaVuSans-65" x="142.089844"/>
      <use xlink:href="#DejaVuSans-72" x="203.613281"/>
      <use xlink:href="#DejaVuSans-79" x="244.726562"/>
      <use xlink:href="#DejaVuSans-20" x="303.90625"/>
      <use xlink:href="#DejaVuSans-54" x="335.693359"/>
      <use xlink:href="#DejaVuSans-65" x="379.777344"/>
      <use xlink:href="#DejaVuSans-6d" x="441.300781"/>
      <use xlink:href="#DejaVuSans-70" x="538.712891"/>
      <use xlink:href="#DejaVuSans-6c" x="602.189453"/>
      <use xlink:href="#DejaVuSans-61" x="629.972656"/>
      <use xlink:href="#DejaVuSans-74" x="691.251953"/>
      <use xlink:href="#DejaVuSans-65" x="730.460938"/>
     </g>
    </g>
   </g>
   <g id="matplotlib.axis_2">
    <g id="ytick_1">
     <g id="line2d_17">
      <path d="M 57.6 307.584 
L 414.72 307.584 
" clip-path="url(#p4f5fc98e5c)" style="fill: none; stroke: #ffffff; stroke-width: 0.8; stroke-linecap: square"/>
     </g>
     <g id="line2d_18">
      <defs>
       <path id="m044e2fb8a0" d="M 0 0 
L -3.5 0 
" style="stroke: #555555; stroke-width: 0.8"/>
      </defs>
      <g>
       <use xlink:href="#m044e2fb8a0" x="57.6" y="307.584" style="fill: #555555; stroke: #555555; stroke-width: 0.8"/>
      </g>
     </g>
     <g id="text_10">
      <!-- 0 -->
      <g style="fill: #555555" transform="translate(44.2375 311.383219) scale(0.1 -0.1)">
       <defs>
        <path id="DejaVuSans-30" d="M 2034 4250 
Q 1547 4250 1301 3770 
Q 1056 3291 1056 2328 
Q 1056 1369 1301 889 
Q 1547 409 2034 409 
Q 2525 409 2770 889 
Q 3016 1369 3016 2328 
Q 3016 3291 2770 3770 
Q 2525 4250 2034 4250 
z
M 2034 4750 
Q 2819 4750 3233 4129 
Q 3647 3509 3647 2328 
Q 3647 1150 3233 529 
Q 2819 -91 2034 -91 
Q 1250 -91 836 529 
Q 422 1150 422 2328 
Q 422 3509 836 4129 
Q 1250 4750 2034 4750 
z
" transform="scale(0.015625)"/>
       </defs>
       <use xlink:href="#DejaVuSans-30"/>
      </g>
     </g>
    </g>
    <g id="ytick_2">
     <g id="line2d_19">
      <path d="M 57.6 268.507348 
L 414.72 268.507348 
" clip-path="url(#p4f5fc98e5c)" style="fill: none; stroke: #ffffff; stroke-width: 0.8; stroke-linecap: square"/>
     </g>
     <g id="line2d_20">
      <g>
       <use xlink:href="#m044e2fb8a0" x="57.6" y="268.507348" style="fill: #555555; stroke: #555555; stroke-width: 0.8"/>
      </g>
     </g>
     <g id="text_11">
      <!-- 5 -->
      <g style="fill: #555555" transform="translate(44.2375 272.306567) scale(0.1 -0.1)">
       <use xlink:href="#DejaVuSans-35"/>
      </g>
     </g>
    </g>
    <g id="ytick_3">
     <g id="line2d_21">
      <path d="M 57.6 229.430696 
L 414.72 229.430696 
" clip-path="url(#p4f5fc98e5c)" style="fill: none; stroke: #ffffff; stroke-width: 0.8; stroke-linecap: square"/>
     </g>
     <g id="line2d_22">
      <g>
       <use xlink:href="#m044e2fb8a0" x="57.6" y="229.430696" style="fill: #555555; stroke: #555555; stroke-width: 0.8"/>
      </g>
     </g>
     <g id="text_12">
      <!-- 10 -->
      <g style="fill: #555555" transform="translate(37.875 233.229915) scale(0.1 -0.1)">
       <use xlink:href="#DejaVuSans-31"/>
       <use xlink:href="#DejaVuSans-30" x="63.623047"/>
      </g>
     </g>
    </g>
    <g id="ytick_4">
     <g id="line2d_23">
      <path d="M 57.6 190.354044 
L 414.72 190.354044 
" clip-path="url(#p4f5fc98e5c)" style="fill: none; stroke: #ffffff; stroke-width: 0.8; stroke-linecap: square"/>
     </g>
     <g id="line2d_24">
      <g>
       <use xlink:href="#m044e2fb8a0" x="57.6" y="190.354044" style="fill: #555555; stroke: #555555; stroke-width: 0.8"/>
      </g>
     </g>
     <g id="text_13">
      <!-- 15 -->
      <g style="fill: #555555" transform="translate(37.875 194.153263) scale(0.1 -0.1)">
       <use xlink:href="#DejaVuSans-31"/>
       <use xlink:href="#DejaVuSans-35" x="63.623047"/>
      </g>
     </g>
    </g>
    <g id="ytick_5">
     <g id="line2d_25">
      <path d="M 57.6 151.277392 
L 414.72 151.277392 
" clip-path="url(#p4f5fc98e5c)" style="fill: none; stroke: #ffffff; stroke-width: 0.8; stroke-linecap: square"/>
     </g>
     <g id="line2d_26">
      <g>
       <use xlink:href="#m044e2fb8a0" x="57.6" y="151.277392" style="fill: #555555; stroke: #555555; stroke-width: 0.8"/>
      </g>
     </g>
     <g id="text_14">
      <!-- 20 -->
      <g style="fill: #555555" transform="translate(37.875 155.076611) scale(0.1 -0.1)">
       <use xlink:href="#DejaVuSans-32"/>
       <use xlink:href="#DejaVuSans-30" x="63.623047"/>
      </g>
     </g>
    </g>
    <g id="ytick_6">
     <g id="line2d_27">
      <path d="M 57.6 112.20074 
L 414.72 112.20074 
" clip-path="url(#p4f5fc98e5c)" style="fill: none; stroke: #ffffff; stroke-width: 0.8; stroke-linecap: square"/>
     </g>
     <g id="line2d_28">
      <g>
       <use xlink:href="#m044e2fb8a0" x="57.6" y="112.20074" style="fill: #555555; stroke: #555555; stroke-width: 0.8"/>
      </g>
     </g>
     <g id="text_15">
      <!-- 25 -->
      <g style="fill: #555555" transform="translate(37.875 115.999959) scale(0.1 -0.1)">
       <use xlink:href="#DejaVuSans-32"/>
       <use xlink:href="#DejaVuSans-35" x="63.623047"/>
      </g>
     </g>
    </g>
    <g id="ytick_7">
     <g id="line2d_29">
      <path d="M 57.6 73.124088 
L 414.72 73.124088 
" clip-path="url(#p4f5fc98e5c)" style="fill: none; stroke: #ffffff; stroke-width: 0.8; stroke-linecap: square"/>
     </g>
     <g id="line2d_30">
      <g>
       <use xlink:href="#m044e2fb8a0" x="57.6" y="73.124088" style="fill: #555555; stroke: #555555; stroke-width: 0.8"/>
      </g>
     </g>
     <g id="text_16">
      <!-- 30 -->
      <g style="fill: #555555" transform="translate(37.875 76.923307) scale(0.1 -0.1)">
       <use xlink:href="#DejaVuSans-33"/>
       <use xlink:href="#DejaVuSans-30" x="63.623047"/>
      </g>
     </g>
    </g>
    <g id="text_17">
     <!-- Optimal Traversal Metric -->
     <g style="fill: #555555" transform="translate(31.379375 247.83675) rotate(-90) scale(0.12 -0.12)">
      <defs>
       <path id="DejaVuSans-4f" d="M 2522 4238 
Q 1834 4238 1429 3725 
Q 1025 3213 1025 2328 
Q 1025 1447 1429 934 
Q 1834 422 2522 422 
Q 3209 422 3611 934 
Q 4013 1447 4013 2328 
Q 4013 3213 3611 3725 
Q 3209 4238 2522 4238 
z
M 2522 4750 
Q 3503 4750 4090 4092 
Q 4678 3434 4678 2328 
Q 4678 1225 4090 567 
Q 3503 -91 2522 -91 
Q 1538 -91 948 565 
Q 359 1222 359 2328 
Q 359 3434 948 4092 
Q 1538 4750 2522 4750 
z
" transform="scale(0.015625)"/>
       <path id="DejaVuSans-69" d="M 603 3500 
L 1178 3500 
L 1178 0 
L 603 0 
L 603 3500 
z
M 603 4863 
L 1178 4863 
L 1178 4134 
L 603 4134 
L 603 4863 
z
" transform="scale(0.015625)"/>
       <path id="DejaVuSans-76" d="M 191 3500 
L 800 3500 
L 1894 563 
L 2988 3500 
L 3597 3500 
L 2284 0 
L 1503 0 
L 191 3500 
z
" transform="scale(0.015625)"/>
       <path id="DejaVuSans-73" d="M 2834 3397 
L 2834 2853 
Q 2591 2978 2328 3040 
Q 2066 3103 1784 3103 
Q 1356 3103 1142 2972 
Q 928 2841 928 2578 
Q 928 2378 1081 2264 
Q 1234 2150 1697 2047 
L 1894 2003 
Q 2506 1872 2764 1633 
Q 3022 1394 3022 966 
Q 3022 478 2636 193 
Q 2250 -91 1575 -91 
Q 1294 -91 989 -36 
Q 684 19 347 128 
L 347 722 
Q 666 556 975 473 
Q 1284 391 1588 391 
Q 1994 391 2212 530 
Q 2431 669 2431 922 
Q 2431 1156 2273 1281 
Q 2116 1406 1581 1522 
L 1381 1569 
Q 847 1681 609 1914 
Q 372 2147 372 2553 
Q 372 3047 722 3315 
Q 1072 3584 1716 3584 
Q 2034 3584 2315 3537 
Q 2597 3491 2834 3397 
z
" transform="scale(0.015625)"/>
       <path id="DejaVuSans-4d" d="M 628 4666 
L 1569 4666 
L 2759 1491 
L 3956 4666 
L 4897 4666 
L 4897 0 
L 4281 0 
L 4281 4097 
L 3078 897 
L 2444 897 
L 1241 4097 
L 1241 0 
L 628 0 
L 628 4666 
z
" transform="scale(0.015625)"/>
       <path id="DejaVuSans-63" d="M 3122 3366 
L 3122 2828 
Q 2878 2963 2633 3030 
Q 2388 3097 2138 3097 
Q 1578 3097 1268 2742 
Q 959 2388 959 1747 
Q 959 1106 1268 751 
Q 1578 397 2138 397 
Q 2388 397 2633 464 
Q 2878 531 3122 666 
L 3122 134 
Q 2881 22 2623 -34 
Q 2366 -91 2075 -91 
Q 1284 -91 818 406 
Q 353 903 353 1747 
Q 353 2603 823 3093 
Q 1294 3584 2113 3584 
Q 2378 3584 2631 3529 
Q 2884 3475 3122 3366 
z
" transform="scale(0.015625)"/>
      </defs>
      <use xlink:href="#DejaVuSans-4f"/>
      <use xlink:href="#DejaVuSans-70" x="78.710938"/>
      <use xlink:href="#DejaVuSans-74" x="142.1875"/>
      <use xlink:href="#DejaVuSans-69" x="181.396484"/>
      <use xlink:href="#DejaVuSans-6d" x="209.179688"/>
      <use xlink:href="#DejaVuSans-61" x="306.591797"/>
      <use xlink:href="#DejaVuSans-6c" x="367.871094"/>
      <use xlink:href="#DejaVuSans-20" x="395.654297"/>
      <use xlink:href="#DejaVuSans-54" x="427.441406"/>
      <use xlink:href="#DejaVuSans-72" x="473.775391"/>
      <use xlink:href="#DejaVuSans-61" x="514.888672"/>
      <use xlink:href="#DejaVuSans-76" x="576.167969"/>
      <use xlink:href="#DejaVuSans-65" x="635.347656"/>
      <use xlink:href="#DejaVuSans-72" x="696.871094"/>
      <use xlink:href="#DejaVuSans-73" x="737.984375"/>
      <use xlink:href="#DejaVuSans-61" x="790.083984"/>
      <use xlink:href="#DejaVuSans-6c" x="851.363281"/>
      <use xlink:href="#DejaVuSans-20" x="879.146484"/>
      <use xlink:href="#DejaVuSans-4d" x="910.933594"/>
      <use xlink:href="#DejaVuSans-65" x="997.212891"/>
      <use xlink:href="#DejaVuSans-74" x="1058.736328"/>
      <use xlink:href="#DejaVuSans-72" x="1097.945312"/>
      <use xlink:href="#DejaVuSans-69" x="1139.058594"/>
      <use xlink:href="#DejaVuSans-63" x="1166.841797"/>
     </g>
    </g>
   </g>
   <g id="patch_3">
    <path d="M 80.116364 307.584 
L 86.4 307.584 
L 86.4 274.089727 
L 80.116364 274.089727 
z
" clip-path="url(#p4f5fc98e5c)" style="fill: #e24a33"/>
   </g>
   <g id="patch_4">
    <path d="M 122.007273 307.584 
L 128.290909 307.584 
L 128.290909 291.787056 
L 122.007273 291.787056 
z
" clip-path="url(#p4f5fc98e5c)" style="fill: #e24a33"/>
   </g>
   <g id="patch_5">
    <path d="M 163.898182 307.584 
L 170.181818 307.584 
L 170.181818 291.953339 
L 163.898182 291.953339 
z
" clip-path="url(#p4f5fc98e5c)" style="fill: #e24a33"/>
   </g>
   <g id="patch_6">
    <path d="M 205.789091 307.584 
L 212.072727 307.584 
L 212.072727 221.615366 
L 205.789091 221.615366 
z
" clip-path="url(#p4f5fc98e5c)" style="fill: #e24a33"/>
   </g>
   <g id="patch_7">
    <path d="M 247.68 307.584 
L 253.963636 307.584 
L 253.963636 248.969022 
L 247.68 248.969022 
z
" clip-path="url(#p4f5fc98e5c)" style="fill: #e24a33"/>
   </g>
   <g id="patch_8">
    <path d="M 289.570909 307.584 
L 295.854545 307.584 
L 295.854545 292.886513 
L 289.570909 292.886513 
z
" clip-path="url(#p4f5fc98e5c)" style="fill: #e24a33"/>
   </g>
   <g id="patch_9">
    <path d="M 331.461818 307.584 
L 337.745455 307.584 
L 337.745455 142.159507 
L 331.461818 142.159507 
z
" clip-path="url(#p4f5fc98e5c)" style="fill: #e24a33"/>
   </g>
   <g id="patch_10">
    <path d="M 373.352727 307.584 
L 379.636364 307.584 
L 379.636364 290.216599 
L 373.352727 290.216599 
z
" clip-path="url(#p4f5fc98e5c)" style="fill: #e24a33"/>
   </g>
   <g id="patch_11">
    <path d="M 73.832727 307.584 
L 80.116364 307.584 
L 80.116364 291.953339 
L 73.832727 291.953339 
z
" clip-path="url(#p4f5fc98e5c)" style="fill: #348abd"/>
   </g>
   <g id="patch_12">
    <path d="M 115.723636 307.584 
L 122.007273 307.584 
L 122.007273 291.953339 
L 115.723636 291.953339 
z
" clip-path="url(#p4f5fc98e5c)" style="fill: #348abd"/>
   </g>
   <g id="patch_13">
    <path d="M 157.614545 307.584 
L 163.898182 307.584 
L 163.898182 298.97581 
L 157.614545 298.97581 
z
" clip-path="url(#p4f5fc98e5c)" style="fill: #348abd"/>
   </g>
   <g id="patch_14">
    <path d="M 199.505455 307.584 
L 205.789091 307.584 
L 205.789091 289.999507 
L 199.505455 289.999507 
z
" clip-path="url(#p4f5fc98e5c)" style="fill: #348abd"/>
   </g>
   <g id="patch_15">
    <path d="M 241.396364 307.584 
L 247.68 307.584 
L 247.68 291.953339 
L 241.396364 291.953339 
z
" clip-path="url(#p4f5fc98e5c)" style="fill: #348abd"/>
   </g>
   <g id="patch_16">
    <path d="M 283.287273 307.584 
L 289.570909 307.584 
L 289.570909 288.045674 
L 283.287273 288.045674 
z
" clip-path="url(#p4f5fc98e5c)" style="fill: #348abd"/>
   </g>
   <g id="patch_17">
    <path d="M 325.178182 307.584 
L 331.461818 307.584 
L 331.461818 288.045674 
L 325.178182 288.045674 
z
" clip-path="url(#p4f5fc98e5c)" style="fill: #348abd"/>
   </g>
   <g id="patch_18">
    <path d="M 367.069091 307.584 
L 373.352727 307.584 
L 373.352727 307.584 
L 367.069091 307.584 
z
" clip-path="url(#p4f5fc98e5c)" style="fill: #348abd"/>
   </g>
   <g id="patch_19">
    <path d="M 86.4 307.584 
L 92.683636 307.584 
L 92.683636 291.953339 
L 86.4 291.953339 
z
" clip-path="url(#p4f5fc98e5c)" style="fill: #988ed5"/>
   </g>
   <g id="patch_20">
    <path d="M 128.290909 307.584 
L 134.574545 307.584 
L 134.574545 291.953339 
L 128.290909 291.953339 
z
" clip-path="url(#p4f5fc98e5c)" style="fill: #988ed5"/>
   </g>
   <g id="patch_21">
    <path d="M 170.181818 307.584 
L 176.465455 307.584 
L 176.465455 299.220225 
L 170.181818 299.220225 
z
" clip-path="url(#p4f5fc98e5c)" style="fill: #988ed5"/>
   </g>
   <g id="patch_22">
    <path d="M 212.072727 307.584 
L 218.356364 307.584 
L 218.356364 291.953339 
L 212.072727 291.953339 
z
" clip-path="url(#p4f5fc98e5c)" style="fill: #988ed5"/>
   </g>
   <g id="patch_23">
    <path d="M 253.963636 307.584 
L 260.247273 307.584 
L 260.247273 284.138009 
L 253.963636 284.138009 
z
" clip-path="url(#p4f5fc98e5c)" style="fill: #988ed5"/>
   </g>
   <g id="patch_24">
    <path d="M 295.854545 307.584 
L 302.138182 307.584 
L 302.138182 288.045674 
L 295.854545 288.045674 
z
" clip-path="url(#p4f5fc98e5c)" style="fill: #988ed5"/>
   </g>
   <g id="patch_25">
    <path d="M 337.745455 307.584 
L 344.029091 307.584 
L 344.029091 288.045674 
L 337.745455 288.045674 
z
" clip-path="url(#p4f5fc98e5c)" style="fill: #988ed5"/>
   </g>
   <g id="patch_26">
    <path d="M 379.636364 307.584 
L 385.92 307.584 
L 385.92 290.836863 
L 379.636364 290.836863 
z
" clip-path="url(#p4f5fc98e5c)" style="fill: #988ed5"/>
   </g>
   <g id="patch_27">
    <path d="M 92.683636 307.584 
L 98.967273 307.584 
L 98.967273 297.163559 
L 92.683636 297.163559 
z
" clip-path="url(#p4f5fc98e5c)" style="fill: #777777"/>
   </g>
   <g id="patch_28">
    <path d="M 134.574545 307.584 
L 140.858182 307.584 
L 140.858182 298.908983 
L 134.574545 298.908983 
z
" clip-path="url(#p4f5fc98e5c)" style="fill: #777777"/>
   </g>
   <g id="patch_29">
    <path d="M 176.465455 307.584 
L 182.749091 307.584 
L 182.749091 295.008957 
L 176.465455 295.008957 
z
" clip-path="url(#p4f5fc98e5c)" style="fill: #777777"/>
   </g>
   <g id="patch_30">
    <path d="M 218.356364 307.584 
L 224.64 307.584 
L 224.64 54.144 
L 218.356364 54.144 
z
" clip-path="url(#p4f5fc98e5c)" style="fill: #777777"/>
   </g>
   <g id="patch_31">
    <path d="M 260.247273 307.584 
L 266.530909 307.584 
L 266.530909 114.80585 
L 260.247273 114.80585 
z
" clip-path="url(#p4f5fc98e5c)" style="fill: #777777"/>
   </g>
   <g id="patch_32">
    <path d="M 302.138182 307.584 
L 308.421818 307.584 
L 308.421818 248.187489 
L 302.138182 248.187489 
z
" clip-path="url(#p4f5fc98e5c)" style="fill: #777777"/>
   </g>
   <g id="patch_33">
    <path d="M 344.029091 307.584 
L 350.312727 307.584 
L 350.312727 256.784352 
L 344.029091 256.784352 
z
" clip-path="url(#p4f5fc98e5c)" style="fill: #777777"/>
   </g>
   <g id="patch_34">
    <path d="M 385.92 307.584 
L 392.203636 307.584 
L 392.203636 307.584 
L 385.92 307.584 
z
" clip-path="url(#p4f5fc98e5c)" style="fill: #777777"/>
   </g>
   <g id="patch_35">
    <path d="M 98.967273 307.584 
L 105.250909 307.584 
L 105.250909 263.297128 
L 98.967273 263.297128 
z
" clip-path="url(#p4f5fc98e5c)" style="fill: #fbc15e"/>
   </g>
   <g id="patch_36">
    <path d="M 140.858182 307.584 
L 147.141818 307.584 
L 147.141818 289.741453 
L 140.858182 289.741453 
z
" clip-path="url(#p4f5fc98e5c)" style="fill: #fbc15e"/>
   </g>
   <g id="patch_37">
    <path d="M 182.749091 307.584 
L 189.032727 307.584 
L 189.032727 294.854839 
L 182.749091 294.854839 
z
" clip-path="url(#p4f5fc98e5c)" style="fill: #fbc15e"/>
   </g>
   <g id="patch_38">
    <path d="M 224.64 307.584 
L 230.923636 307.584 
L 230.923636 234.119894 
L 224.64 234.119894 
z
" clip-path="url(#p4f5fc98e5c)" style="fill: #fbc15e"/>
   </g>
   <g id="patch_39">
    <path d="M 266.530909 307.584 
L 272.814545 307.584 
L 272.814545 263.45037 
L 266.530909 263.45037 
z
" clip-path="url(#p4f5fc98e5c)" style="fill: #fbc15e"/>
   </g>
   <g id="patch_40">
    <path d="M 308.421818 307.584 
L 314.705455 307.584 
L 314.705455 296.926731 
L 308.421818 296.926731 
z
" clip-path="url(#p4f5fc98e5c)" style="fill: #fbc15e"/>
   </g>
   <g id="patch_41">
    <path d="M 350.312727 307.584 
L 356.596364 307.584 
L 356.596364 179.933604 
L 350.312727 179.933604 
z
" clip-path="url(#p4f5fc98e5c)" style="fill: #fbc15e"/>
   </g>
   <g id="patch_42">
    <path d="M 392.203636 307.584 
L 398.487273 307.584 
L 398.487273 285.701075 
L 392.203636 285.701075 
z
" clip-path="url(#p4f5fc98e5c)" style="fill: #fbc15e"/>
   </g>
   <g id="patch_43">
    <path d="M 80.116364 307.584 
L 86.4 307.584 
L 86.4 204.868229 
L 80.116364 204.868229 
z
" clip-path="url(#p4f5fc98e5c)" style="fill: #8eba42"/>
   </g>
   <g id="patch_44">
    <path d="M 122.007273 307.584 
L 128.290909 307.584 
L 128.290909 292.119623 
L 122.007273 292.119623 
z
" clip-path="url(#p4f5fc98e5c)" style="fill: #8eba42"/>
   </g>
   <g id="patch_45">
    <path d="M 163.898182 307.584 
L 170.181818 307.584 
L 170.181818 291.130673 
L 163.898182 291.130673 
z
" clip-path="url(#p4f5fc98e5c)" style="fill: #8eba42"/>
   </g>
   <g id="patch_46">
    <path d="M 205.789091 307.584 
L 212.072727 307.584 
L 212.072727 184.275454 
L 205.789091 184.275454 
z
" clip-path="url(#p4f5fc98e5c)" style="fill: #8eba42"/>
   </g>
   <g id="patch_47">
    <path d="M 247.68 307.584 
L 253.963636 307.584 
L 253.963636 254.179242 
L 247.68 254.179242 
z
" clip-path="url(#p4f5fc98e5c)" style="fill: #8eba42"/>
   </g>
   <g id="patch_48">
    <path d="M 289.570909 307.584 
L 295.854545 307.584 
L 295.854545 292.886513 
L 289.570909 292.886513 
z
" clip-path="url(#p4f5fc98e5c)" style="fill: #8eba42"/>
   </g>
   <g id="patch_49">
    <path d="M 331.461818 307.584 
L 337.745455 307.584 
L 337.745455 142.159507 
L 331.461818 142.159507 
z
" clip-path="url(#p4f5fc98e5c)" style="fill: #8eba42"/>
   </g>
   <g id="patch_50">
    <path d="M 373.352727 307.584 
L 379.636364 307.584 
L 379.636364 295.302767 
L 373.352727 295.302767 
z
" clip-path="url(#p4f5fc98e5c)" style="fill: #8eba42"/>
   </g>
   <g id="patch_51">
    <path d="M 73.832727 307.584 
L 80.116364 307.584 
L 80.116364 291.953339 
L 73.832727 291.953339 
z
" clip-path="url(#p4f5fc98e5c)" style="fill: #ffb5b8"/>
   </g>
   <g id="patch_52">
    <path d="M 115.723636 307.584 
L 122.007273 307.584 
L 122.007273 295.861004 
L 115.723636 295.861004 
z
" clip-path="url(#p4f5fc98e5c)" style="fill: #ffb5b8"/>
   </g>
   <g id="patch_53">
    <path d="M 157.614545 307.584 
L 163.898182 307.584 
L 163.898182 299.315607 
L 157.614545 299.315607 
z
" clip-path="url(#p4f5fc98e5c)" style="fill: #ffb5b8"/>
   </g>
   <g id="patch_54">
    <path d="M 199.505455 307.584 
L 205.789091 307.584 
L 205.789091 289.999507 
L 199.505455 289.999507 
z
" clip-path="url(#p4f5fc98e5c)" style="fill: #ffb5b8"/>
   </g>
   <g id="patch_55">
    <path d="M 241.396364 307.584 
L 247.68 307.584 
L 247.68 291.953339 
L 241.396364 291.953339 
z
" clip-path="url(#p4f5fc98e5c)" style="fill: #ffb5b8"/>
   </g>
   <g id="patch_56">
    <path d="M 283.287273 307.584 
L 289.570909 307.584 
L 289.570909 288.045674 
L 283.287273 288.045674 
z
" clip-path="url(#p4f5fc98e5c)" style="fill: #ffb5b8"/>
   </g>
   <g id="patch_57">
    <path d="M 325.178182 307.584 
L 331.461818 307.584 
L 331.461818 288.045674 
L 325.178182 288.045674 
z
" clip-path="url(#p4f5fc98e5c)" style="fill: #ffb5b8"/>
   </g>
   <g id="patch_58">
    <path d="M 367.069091 307.584 
L 373.352727 307.584 
L 373.352727 307.584 
L 367.069091 307.584 
z
" clip-path="url(#p4f5fc98e5c)" style="fill: #ffb5b8"/>
   </g>
   <g id="patch_59">
    <path d="M 86.4 307.584 
L 92.683636 307.584 
L 92.683636 291.953339 
L 86.4 291.953339 
z
" clip-path="url(#p4f5fc98e5c)" style="fill: #e24a33"/>
   </g>
   <g id="patch_60">
    <path d="M 128.290909 307.584 
L 134.574545 307.584 
L 134.574545 295.861004 
L 128.290909 295.861004 
z
" clip-path="url(#p4f5fc98e5c)" style="fill: #e24a33"/>
   </g>
   <g id="patch_61">
    <path d="M 170.181818 307.584 
L 176.465455 307.584 
L 176.465455 299.220225 
L 170.181818 299.220225 
z
" clip-path="url(#p4f5fc98e5c)" style="fill: #e24a33"/>
   </g>
   <g id="patch_62">
    <path d="M 212.072727 307.584 
L 218.356364 307.584 
L 218.356364 289.999507 
L 212.072727 289.999507 
z
" clip-path="url(#p4f5fc98e5c)" style="fill: #e24a33"/>
   </g>
   <g id="patch_63">
    <path d="M 253.963636 307.584 
L 260.247273 307.584 
L 260.247273 295.861004 
L 253.963636 295.861004 
z
" clip-path="url(#p4f5fc98e5c)" style="fill: #e24a33"/>
   </g>
   <g id="patch_64">
    <path d="M 295.854545 307.584 
L 302.138182 307.584 
L 302.138182 288.045674 
L 295.854545 288.045674 
z
" clip-path="url(#p4f5fc98e5c)" style="fill: #e24a33"/>
   </g>
   <g id="patch_65">
    <path d="M 337.745455 307.584 
L 344.029091 307.584 
L 344.029091 288.045674 
L 337.745455 288.045674 
z
" clip-path="url(#p4f5fc98e5c)" style="fill: #e24a33"/>
   </g>
   <g id="patch_66">
    <path d="M 379.636364 307.584 
L 385.92 307.584 
L 385.92 299.76867 
L 379.636364 299.76867 
z
" clip-path="url(#p4f5fc98e5c)" style="fill: #e24a33"/>
   </g>
   <g id="patch_67">
    <path d="M 92.683636 307.584 
L 98.967273 307.584 
L 98.967273 297.163559 
L 92.683636 297.163559 
z
" clip-path="url(#p4f5fc98e5c)" style="fill: #348abd"/>
   </g>
   <g id="patch_68">
    <path d="M 134.574545 307.584 
L 140.858182 307.584 
L 140.858182 298.908983 
L 134.574545 298.908983 
z
" clip-path="url(#p4f5fc98e5c)" style="fill: #348abd"/>
   </g>
   <g id="patch_69">
    <path d="M 176.465455 307.584 
L 182.749091 307.584 
L 182.749091 295.008957 
L 176.465455 295.008957 
z
" clip-path="url(#p4f5fc98e5c)" style="fill: #348abd"/>
   </g>
   <g id="patch_70">
    <path d="M 218.356364 307.584 
L 224.64 307.584 
L 224.64 54.144 
L 218.356364 54.144 
z
" clip-path="url(#p4f5fc98e5c)" style="fill: #348abd"/>
   </g>
   <g id="patch_71">
    <path d="M 260.247273 307.584 
L 266.530909 307.584 
L 266.530909 78.334308 
L 260.247273 78.334308 
z
" clip-path="url(#p4f5fc98e5c)" style="fill: #348abd"/>
   </g>
   <g id="patch_72">
    <path d="M 302.138182 307.584 
L 308.421818 307.584 
L 308.421818 248.187489 
L 302.138182 248.187489 
z
" clip-path="url(#p4f5fc98e5c)" style="fill: #348abd"/>
   </g>
   <g id="patch_73">
    <path d="M 344.029091 307.584 
L 350.312727 307.584 
L 350.312727 256.784352 
L 344.029091 256.784352 
z
" clip-path="url(#p4f5fc98e5c)" style="fill: #348abd"/>
   </g>
   <g id="patch_74">
    <path d="M 385.92 307.584 
L 392.203636 307.584 
L 392.203636 307.584 
L 385.92 307.584 
z
" clip-path="url(#p4f5fc98e5c)" style="fill: #348abd"/>
   </g>
   <g id="patch_75">
    <path d="M 98.967273 307.584 
L 105.250909 307.584 
L 105.250909 263.297128 
L 98.967273 263.297128 
z
" clip-path="url(#p4f5fc98e5c)" style="fill: #988ed5"/>
   </g>
   <g id="patch_76">
    <path d="M 140.858182 307.584 
L 147.141818 307.584 
L 147.141818 293.575389 
L 140.858182 293.575389 
z
" clip-path="url(#p4f5fc98e5c)" style="fill: #988ed5"/>
   </g>
   <g id="patch_77">
    <path d="M 182.749091 307.584 
L 189.032727 307.584 
L 189.032727 294.854839 
L 182.749091 294.854839 
z
" clip-path="url(#p4f5fc98e5c)" style="fill: #988ed5"/>
   </g>
   <g id="patch_78">
    <path d="M 224.64 307.584 
L 230.923636 307.584 
L 230.923636 234.119894 
L 224.64 234.119894 
z
" clip-path="url(#p4f5fc98e5c)" style="fill: #988ed5"/>
   </g>
   <g id="patch_79">
    <path d="M 266.530909 307.584 
L 272.814545 307.584 
L 272.814545 257.014215 
L 266.530909 257.014215 
z
" clip-path="url(#p4f5fc98e5c)" style="fill: #988ed5"/>
   </g>
   <g id="patch_80">
    <path d="M 308.421818 307.584 
L 314.705455 307.584 
L 314.705455 290.390273 
L 308.421818 290.390273 
z
" clip-path="url(#p4f5fc98e5c)" style="fill: #988ed5"/>
   </g>
   <g id="patch_81">
    <path d="M 350.312727 307.584 
L 356.596364 307.584 
L 356.596364 60.098537 
L 350.312727 60.098537 
z
" clip-path="url(#p4f5fc98e5c)" style="fill: #988ed5"/>
   </g>
   <g id="patch_82">
    <path d="M 392.203636 307.584 
L 398.487273 307.584 
L 398.487273 289.348229 
L 392.203636 289.348229 
z
" clip-path="url(#p4f5fc98e5c)" style="fill: #988ed5"/>
   </g>
   <g id="patch_83">
    <path d="M 57.6 307.584 
L 57.6 41.472 
" style="fill: none; stroke: #ffffff; stroke-linejoin: miter; stroke-linecap: square"/>
   </g>
   <g id="patch_84">
    <path d="M 414.72 307.584 
L 414.72 41.472 
" style="fill: none; stroke: #ffffff; stroke-linejoin: miter; stroke-linecap: square"/>
   </g>
   <g id="patch_85">
    <path d="M 57.6 307.584 
L 414.72 307.584 
" style="fill: none; stroke: #ffffff; stroke-linejoin: miter; stroke-linecap: square"/>
   </g>
   <g id="patch_86">
    <path d="M 57.6 41.472 
L 414.72 41.472 
" style="fill: none; stroke: #ffffff; stroke-linejoin: miter; stroke-linecap: square"/>
   </g>
   <g id="text_18">
    <!-- Breadth-first link prioritization performance metrics for  -->
    <g transform="translate(35.84475 19.34715) scale(0.144 -0.144)">
     <defs>
      <path id="DejaVuSans-42" d="M 1259 2228 
L 1259 519 
L 2272 519 
Q 2781 519 3026 730 
Q 3272 941 3272 1375 
Q 3272 1813 3026 2020 
Q 2781 2228 2272 2228 
L 1259 2228 
z
M 1259 4147 
L 1259 2741 
L 2194 2741 
Q 2656 2741 2882 2914 
Q 3109 3088 3109 3444 
Q 3109 3797 2882 3972 
Q 2656 4147 2194 4147 
L 1259 4147 
z
M 628 4666 
L 2241 4666 
Q 2963 4666 3353 4366 
Q 3744 4066 3744 3513 
Q 3744 3084 3544 2831 
Q 3344 2578 2956 2516 
Q 3422 2416 3680 2098 
Q 3938 1781 3938 1306 
Q 3938 681 3513 340 
Q 3088 0 2303 0 
L 628 0 
L 628 4666 
z
" transform="scale(0.015625)"/>
      <path id="DejaVuSans-64" d="M 2906 2969 
L 2906 4863 
L 3481 4863 
L 3481 0 
L 2906 0 
L 2906 525 
Q 2725 213 2448 61 
Q 2172 -91 1784 -91 
Q 1150 -91 751 415 
Q 353 922 353 1747 
Q 353 2572 751 3078 
Q 1150 3584 1784 3584 
Q 2172 3584 2448 3432 
Q 2725 3281 2906 2969 
z
M 947 1747 
Q 947 1113 1208 752 
Q 1469 391 1925 391 
Q 2381 391 2643 752 
Q 2906 1113 2906 1747 
Q 2906 2381 2643 2742 
Q 2381 3103 1925 3103 
Q 1469 3103 1208 2742 
Q 947 2381 947 1747 
z
" transform="scale(0.015625)"/>
      <path id="DejaVuSans-68" d="M 3513 2113 
L 3513 0 
L 2938 0 
L 2938 2094 
Q 2938 2591 2744 2837 
Q 2550 3084 2163 3084 
Q 1697 3084 1428 2787 
Q 1159 2491 1159 1978 
L 1159 0 
L 581 0 
L 581 4863 
L 1159 4863 
L 1159 2956 
Q 1366 3272 1645 3428 
Q 1925 3584 2291 3584 
Q 2894 3584 3203 3211 
Q 3513 2838 3513 2113 
z
" transform="scale(0.015625)"/>
      <path id="DejaVuSans-2d" d="M 313 2009 
L 1997 2009 
L 1997 1497 
L 313 1497 
L 313 2009 
z
" transform="scale(0.015625)"/>
      <path id="DejaVuSans-66" d="M 2375 4863 
L 2375 4384 
L 1825 4384 
Q 1516 4384 1395 4259 
Q 1275 4134 1275 3809 
L 1275 3500 
L 2222 3500 
L 2222 3053 
L 1275 3053 
L 1275 0 
L 697 0 
L 697 3053 
L 147 3053 
L 147 3500 
L 697 3500 
L 697 3744 
Q 697 4328 969 4595 
Q 1241 4863 1831 4863 
L 2375 4863 
z
" transform="scale(0.015625)"/>
      <path id="DejaVuSans-6e" d="M 3513 2113 
L 3513 0 
L 2938 0 
L 2938 2094 
Q 2938 2591 2744 2837 
Q 2550 3084 2163 3084 
Q 1697 3084 1428 2787 
Q 1159 2491 1159 1978 
L 1159 0 
L 581 0 
L 581 3500 
L 1159 3500 
L 1159 2956 
Q 1366 3272 1645 3428 
Q 1925 3584 2291 3584 
Q 2894 3584 3203 3211 
Q 3513 2838 3513 2113 
z
" transform="scale(0.015625)"/>
      <path id="DejaVuSans-6b" d="M 581 4863 
L 1159 4863 
L 1159 1991 
L 2875 3500 
L 3609 3500 
L 1753 1863 
L 3688 0 
L 2938 0 
L 1159 1709 
L 1159 0 
L 581 0 
L 581 4863 
z
" transform="scale(0.015625)"/>
      <path id="DejaVuSans-6f" d="M 1959 3097 
Q 1497 3097 1228 2736 
Q 959 2375 959 1747 
Q 959 1119 1226 758 
Q 1494 397 1959 397 
Q 2419 397 2687 759 
Q 2956 1122 2956 1747 
Q 2956 2369 2687 2733 
Q 2419 3097 1959 3097 
z
M 1959 3584 
Q 2709 3584 3137 3096 
Q 3566 2609 3566 1747 
Q 3566 888 3137 398 
Q 2709 -91 1959 -91 
Q 1206 -91 779 398 
Q 353 888 353 1747 
Q 353 2609 779 3096 
Q 1206 3584 1959 3584 
z
" transform="scale(0.015625)"/>
      <path id="DejaVuSans-7a" d="M 353 3500 
L 3084 3500 
L 3084 2975 
L 922 459 
L 3084 459 
L 3084 0 
L 275 0 
L 275 525 
L 2438 3041 
L 353 3041 
L 353 3500 
z
" transform="scale(0.015625)"/>
     </defs>
     <use xlink:href="#DejaVuSans-42"/>
     <use xlink:href="#DejaVuSans-72" x="68.603516"/>
     <use xlink:href="#DejaVuSans-65" x="107.466797"/>
     <use xlink:href="#DejaVuSans-61" x="168.990234"/>
     <use xlink:href="#DejaVuSans-64" x="230.269531"/>
     <use xlink:href="#DejaVuSans-74" x="293.746094"/>
     <use xlink:href="#DejaVuSans-68" x="332.955078"/>
     <use xlink:href="#DejaVuSans-2d" x="396.333984"/>
     <use xlink:href="#DejaVuSans-66" x="432.417969"/>
     <use xlink:href="#DejaVuSans-69" x="467.623047"/>
     <use xlink:href="#DejaVuSans-72" x="495.40625"/>
     <use xlink:href="#DejaVuSans-73" x="536.519531"/>
     <use xlink:href="#DejaVuSans-74" x="588.619141"/>
     <use xlink:href="#DejaVuSans-20" x="627.828125"/>
     <use xlink:href="#DejaVuSans-6c" x="659.615234"/>
     <use xlink:href="#DejaVuSans-69" x="687.398438"/>
     <use xlink:href="#DejaVuSans-6e" x="715.181641"/>
     <use xlink:href="#DejaVuSans-6b" x="778.560547"/>
     <use xlink:href="#DejaVuSans-20" x="836.470703"/>
     <use xlink:href="#DejaVuSans-70" x="868.257812"/>
     <use xlink:href="#DejaVuSans-72" x="931.734375"/>
     <use xlink:href="#DejaVuSans-69" x="972.847656"/>
     <use xlink:href="#DejaVuSans-6f" x="1000.630859"/>
     <use xlink:href="#DejaVuSans-72" x="1061.8125"/>
     <use xlink:href="#DejaVuSans-69" x="1102.925781"/>
     <use xlink:href="#DejaVuSans-74" x="1130.708984"/>
     <use xlink:href="#DejaVuSans-69" x="1169.917969"/>
     <use xlink:href="#DejaVuSans-7a" x="1197.701172"/>
     <use xlink:href="#DejaVuSans-61" x="1250.191406"/>
     <use xlink:href="#DejaVuSans-74" x="1311.470703"/>
     <use xlink:href="#DejaVuSans-69" x="1350.679688"/>
     <use xlink:href="#DejaVuSans-6f" x="1378.462891"/>
     <use xlink:href="#DejaVuSans-6e" x="1439.644531"/>
     <use xlink:href="#DejaVuSans-20" x="1503.023438"/>
     <use xlink:href="#DejaVuSans-70" x="1534.810547"/>
     <use xlink:href="#DejaVuSans-65" x="1598.287109"/>
     <use xlink:href="#DejaVuSans-72" x="1659.810547"/>
     <use xlink:href="#DejaVuSans-66" x="1700.923828"/>
     <use xlink:href="#DejaVuSans-6f" x="1736.128906"/>
     <use xlink:href="#DejaVuSans-72" x="1797.310547"/>
     <use xlink:href="#DejaVuSans-6d" x="1836.673828"/>
     <use xlink:href="#DejaVuSans-61" x="1934.085938"/>
     <use xlink:href="#DejaVuSans-6e" x="1995.365234"/>
     <use xlink:href="#DejaVuSans-63" x="2058.744141"/>
     <use xlink:href="#DejaVuSans-65" x="2113.724609"/>
     <use xlink:href="#DejaVuSans-20" x="2175.248047"/>
     <use xlink:href="#DejaVuSans-6d" x="2207.035156"/>
     <use xlink:href="#DejaVuSans-65" x="2304.447266"/>
     <use xlink:href="#DejaVuSans-74" x="2365.970703"/>
     <use xlink:href="#DejaVuSans-72" x="2405.179688"/>
     <use xlink:href="#DejaVuSans-69" x="2446.292969"/>
     <use xlink:href="#DejaVuSans-63" x="2474.076172"/>
     <use xlink:href="#DejaVuSans-73" x="2529.056641"/>
     <use xlink:href="#DejaVuSans-20" x="2581.15625"/>
     <use xlink:href="#DejaVuSans-66" x="2612.943359"/>
     <use xlink:href="#DejaVuSans-6f" x="2648.148438"/>
     <use xlink:href="#DejaVuSans-72" x="2709.330078"/>
     <use xlink:href="#DejaVuSans-20" x="2750.443359"/>
    </g>
    <!--  discover query templates and their instantiations -->
    <g transform="translate(55.84275 35.472) scale(0.144 -0.144)">
     <defs>
      <path id="DejaVuSans-71" d="M 947 1747 
Q 947 1113 1208 752 
Q 1469 391 1925 391 
Q 2381 391 2643 752 
Q 2906 1113 2906 1747 
Q 2906 2381 2643 2742 
Q 2381 3103 1925 3103 
Q 1469 3103 1208 2742 
Q 947 2381 947 1747 
z
M 2906 525 
Q 2725 213 2448 61 
Q 2172 -91 1784 -91 
Q 1150 -91 751 415 
Q 353 922 353 1747 
Q 353 2572 751 3078 
Q 1150 3584 1784 3584 
Q 2172 3584 2448 3432 
Q 2725 3281 2906 2969 
L 2906 3500 
L 3481 3500 
L 3481 -1331 
L 2906 -1331 
L 2906 525 
z
" transform="scale(0.015625)"/>
     </defs>
     <use xlink:href="#DejaVuSans-20"/>
     <use xlink:href="#DejaVuSans-64" x="31.787109"/>
     <use xlink:href="#DejaVuSans-69" x="95.263672"/>
     <use xlink:href="#DejaVuSans-73" x="123.046875"/>
     <use xlink:href="#DejaVuSans-63" x="175.146484"/>
     <use xlink:href="#DejaVuSans-6f" x="230.126953"/>
     <use xlink:href="#DejaVuSans-76" x="291.308594"/>
     <use xlink:href="#DejaVuSans-65" x="350.488281"/>
     <use xlink:href="#DejaVuSans-72" x="412.011719"/>
     <use xlink:href="#DejaVuSans-20" x="453.125"/>
     <use xlink:href="#DejaVuSans-71" x="484.912109"/>
     <use xlink:href="#DejaVuSans-75" x="548.388672"/>
     <use xlink:href="#DejaVuSans-65" x="611.767578"/>
     <use xlink:href="#DejaVuSans-72" x="673.291016"/>
     <use xlink:href="#DejaVuSans-79" x="714.404297"/>
     <use xlink:href="#DejaVuSans-20" x="773.583984"/>
     <use xlink:href="#DejaVuSans-74" x="805.371094"/>
     <use xlink:href="#DejaVuSans-65" x="844.580078"/>
     <use xlink:href="#DejaVuSans-6d" x="906.103516"/>
     <use xlink:href="#DejaVuSans-70" x="1003.515625"/>
     <use xlink:href="#DejaVuSans-6c" x="1066.992188"/>
     <use xlink:href="#DejaVuSans-61" x="1094.775391"/>
     <use xlink:href="#DejaVuSans-74" x="1156.054688"/>
     <use xlink:href="#DejaVuSans-65" x="1195.263672"/>
     <use xlink:href="#DejaVuSans-73" x="1256.787109"/>
     <use xlink:href="#DejaVuSans-20" x="1308.886719"/>
     <use xlink:href="#DejaVuSans-61" x="1340.673828"/>
     <use xlink:href="#DejaVuSans-6e" x="1401.953125"/>
     <use xlink:href="#DejaVuSans-64" x="1465.332031"/>
     <use xlink:href="#DejaVuSans-20" x="1528.808594"/>
     <use xlink:href="#DejaVuSans-74" x="1560.595703"/>
     <use xlink:href="#DejaVuSans-68" x="1599.804688"/>
     <use xlink:href="#DejaVuSans-65" x="1663.183594"/>
     <use xlink:href="#DejaVuSans-69" x="1724.707031"/>
     <use xlink:href="#DejaVuSans-72" x="1752.490234"/>
     <use xlink:href="#DejaVuSans-20" x="1793.603516"/>
     <use xlink:href="#DejaVuSans-69" x="1825.390625"/>
     <use xlink:href="#DejaVuSans-6e" x="1853.173828"/>
     <use xlink:href="#DejaVuSans-73" x="1916.552734"/>
     <use xlink:href="#DejaVuSans-74" x="1968.652344"/>
     <use xlink:href="#DejaVuSans-61" x="2007.861328"/>
     <use xlink:href="#DejaVuSans-6e" x="2069.140625"/>
     <use xlink:href="#DejaVuSans-74" x="2132.519531"/>
     <use xlink:href="#DejaVuSans-69" x="2171.728516"/>
     <use xlink:href="#DejaVuSans-61" x="2199.511719"/>
     <use xlink:href="#DejaVuSans-74" x="2260.791016"/>
     <use xlink:href="#DejaVuSans-69" x="2300"/>
     <use xlink:href="#DejaVuSans-6f" x="2327.783203"/>
     <use xlink:href="#DejaVuSans-6e" x="2388.964844"/>
     <use xlink:href="#DejaVuSans-73" x="2452.34375"/>
    </g>
   </g>
   <g id="legend_1">
    <g id="patch_87">
     <path d="M 403.72 54.472 
L 407.72 54.472 
Q 409.72 54.472 409.72 52.472 
L 409.72 48.472 
Q 409.72 46.472 407.72 46.472 
L 403.72 46.472 
Q 401.72 46.472 401.72 48.472 
L 401.72 52.472 
Q 401.72 54.472 403.72 54.472 
z
" style="fill: #e5e5e5; opacity: 0.8; stroke: #cccccc; stroke-width: 0.5; stroke-linejoin: miter"/>
    </g>
   </g>
  </g>
 </g>
 <defs>
  <clipPath id="p4f5fc98e5c">
   <rect x="57.6" y="41.472" width="357.12" height="266.112"/>
  </clipPath>
 </defs>
</svg>
